IKResults
version=1
nRows=16
nColumns=44
inDegrees=yes

Units are S.I. units (second, meters, Newtons, ...)
Angles are in degrees.

endheader
time	ground_spine_rot_x	ground_spine_rot_y	ground_spine_rot_z	ground_spine_tx	ground_spine_ty	ground_spine_tz	clav_prot	clav_elev	scapula_abduction	scapula_elevation	scapula_upward_rot	scapula_winging	plane_elv	shoulder_elv	axial_rot	elbow_flexion	pro_sup	clav_prot_l	clav_elev_l	pitch2	roll2	yaw2	aux7jnt_r3	aux7jnt_r1	aux7jnt_r2	aux6jnt_r3	aux6jnt_r1	aux6jnt_r2	aux5jnt_r3	aux5jnt_r1	aux5jnt_r2	aux4jnt_r3	aux4jnt_r1	aux4jnt_r2	aux3jnt_r3	aux3jnt_r1	aux3jnt_r2	pitch1	roll1	yaw1	aux1jnt_r3	aux1jnt_r1	aux1jnt_r2
      1.83000000	      0.84898625	     -0.77811788	     -2.30053654	     -0.83971808	      1.09138076	      0.91398975	    -23.69489543	     -1.38678119	      6.14625382	    -16.09407521	     11.99879994	     18.20949172	    -66.57200299	     36.75632607	     48.31129400	      0.00000000	     34.32000000	     30.42326055	     -1.16071730	     -0.03582399	     -0.04423100	     -0.00986690	     -0.38382970	     -0.34719192	     -0.10628230	     -0.45156324	     -0.39787749	     -0.12380751	     -0.45156324	     -0.54739755	     -0.12380751	     -0.33867243	     -0.54739755	     -0.12380751	     -0.22578162	     -0.49671342	     -0.05314115	     -0.25602473	      0.01969841	     -0.01786704	     -8.15603589	      0.56431781	     -0.11363161
      1.84000000	      0.84807862	     -0.77988885	     -2.20217423	     -0.83935740	      1.09155207	      0.91402547	    -23.70941541	     -1.38987673	      6.12262930	    -16.09821178	     11.99794594	     18.22213921	    -66.46276469	     36.73329656	     52.79838691	      0.00000000	     34.32000000	     30.42326055	     -1.16071730	     -0.04943986	     -0.04501797	     -0.00753257	     -0.52971449	     -0.35336926	     -0.08113784	     -0.62319199	     -0.40495665	     -0.09451690	     -0.62319199	     -0.55713701	     -0.09451690	     -0.46739399	     -0.55713701	     -0.09451690	     -0.31159600	     -0.50555110	     -0.04056892	     -0.25721545	      0.02100869	     -0.01955442	     -8.19396786	      0.60185460	     -0.12436308
      1.85000000	      0.84258934	     -0.78774100	     -2.11012951	     -0.83908537	      1.09170621	      0.91405917	    -23.69449534	     -1.39668996	      6.15023552	    -16.10320870	     11.99839465	     18.21162772	    -66.52102823	     36.75423789	     52.83765231	      0.00000000	     34.32000000	     30.42326055	     -1.16071730	     -0.06315546	     -0.04637045	     -0.00538211	     -0.67666787	     -0.36398551	     -0.05797401	     -0.79607790	     -0.41712274	     -0.06753351	     -0.79607790	     -0.57387505	     -0.06753351	     -0.59705843	     -0.57387505	     -0.06753351	     -0.39803895	     -0.52073934	     -0.02898700	     -0.25812498	      0.02289287	     -0.01889030	     -8.22294238	      0.65583229	     -0.12013938
      1.86000000	      0.84143649	     -0.77193915	     -2.02509725	     -0.83882619	      1.09189116	      0.91403795	    -23.75119160	     -1.40237394	      6.05832581	    -16.11429227	     11.99821265	     18.25845330	    -66.46916670	     36.74482291	     51.19946222	      0.00000000	     34.32000000	     30.42326055	     -1.16071730	     -0.07809227	     -0.04520893	     -0.00653486	     -0.83670555	     -0.35486820	     -0.07039090	     -0.98435705	     -0.40667441	     -0.08199786	     -0.98435705	     -0.55950030	     -0.08199786	     -0.73826779	     -0.55950030	     -0.08199786	     -0.49217853	     -0.50769557	     -0.03519545	     -0.25874543	      0.02043326	     -0.01770525	     -8.24270756	      0.58536985	     -0.11260263
      1.87000000	      0.83814729	     -0.79592390	     -1.97991491	     -0.83879254	      1.09198814	      0.91409523	    -23.75330617	     -1.40202027	      6.05414785	    -16.11397964	     11.99740681	     18.26048605	    -66.45496773	     36.74010991	     51.21227534	      0.00000000	     34.32000000	     30.42326055	     -1.16071730	     -0.08821058	     -0.04544117	     -0.00602754	     -0.94511646	     -0.35669112	     -0.06492624	     -1.11189899	     -0.40876346	     -0.07563211	     -1.11189899	     -0.56237440	     -0.07563211	     -0.83392424	     -0.56237440	     -0.07563211	     -0.55594949	     -0.51030355	     -0.03246312	     -0.26429806	      0.02026310	     -0.01706710	     -8.41959470	      0.58049519	     -0.10854406
      1.88000000	      0.83942163	     -0.82079066	     -1.81722588	     -0.83811810	      1.09230854	      0.91412498	    -23.65458781	     -1.44654104	      6.23491582	    -16.14596009	     11.99830273	     18.19162772	    -66.50837505	     36.89893908	     47.61376196	      0.00000000	     34.32000000	     30.42326055	     -1.16071730	     -0.11062182	     -0.04722183	     -0.00572867	     -1.18523765	     -0.37066847	     -0.06170702	     -1.39439382	     -0.42478133	     -0.07188207	     -1.39439382	     -0.58441169	     -0.07188207	     -1.04579536	     -0.58441169	     -0.07188207	     -0.69719691	     -0.53030038	     -0.03085351	     -0.26033291	      0.02287332	     -0.01653268	     -8.29327901	      0.65527226	     -0.10514526
      1.89000000	      0.84362718	     -0.83515078	     -1.72594620	     -0.83790279	      1.09246397	      0.91410229	    -23.64098638	     -1.44853462	      6.25795665	    -16.14632581	     11.99837359	     18.18094929	    -66.66628649	     36.88086712	     53.04423227	      0.00000000	     34.32000000	     30.42326055	     -1.16071730	     -0.12708575	     -0.04690951	     -0.00641819	     -1.36163738	     -0.36821686	     -0.06913417	     -1.60192240	     -0.42197181	     -0.08053391	     -1.60192240	     -0.58054638	     -0.08053391	     -1.20144180	     -0.58054638	     -0.08053391	     -0.80096120	     -0.52679297	     -0.03456709	     -0.26121552	      0.02060584	     -0.01523755	     -8.32139601	      0.59031398	     -0.09690844
      1.90000000	      0.84754676	     -0.84810420	     -1.63982707	     -0.83770740	      1.09266497	      0.91408127	    -23.64993051	     -1.46892801	      6.25112241	    -16.16655304	     11.99837657	     18.19328122	    -66.65343126	     36.87499191	     53.04315013	      0.00000000	     34.32000000	     30.42326055	     -1.16071730	     -0.14415381	     -0.04730856	     -0.00610066	     -1.54451007	     -0.37134928	     -0.06571387	     -1.81706622	     -0.42556152	     -0.07654962	     -1.81706622	     -0.58548507	     -0.07654962	     -1.36279966	     -0.58548507	     -0.07654962	     -0.90853311	     -0.53127438	     -0.03285694	     -0.26175912	      0.02027675	     -0.01486329	     -8.33871315	      0.58088615	     -0.09452821
      1.91000000	      0.86445785	     -0.87891823	     -1.54653684	     -0.83742783	      1.09286615	      0.91401337	    -23.62166241	     -1.45084626	      6.29042075	    -16.14645940	     11.99783387	     18.16627889	    -66.51821999	     36.82231611	     49.52523268	      0.00000000	     34.32000000	     30.42326055	     -1.16071730	     -0.16079086	     -0.04820012	     -0.00560131	     -1.72276473	     -0.37834759	     -0.06033513	     -2.02677707	     -0.43358150	     -0.07028397	     -2.02677707	     -0.59651891	     -0.07028397	     -1.52008280	     -0.59651891	     -0.07028397	     -1.01338853	     -0.54128659	     -0.03016757	     -0.26234578	      0.02015236	     -0.01470112	     -8.35740214	      0.57732265	     -0.09349686
      1.92000000	      0.85191429	     -0.90222364	     -1.45608108	     -0.83722119	      1.09307702	      0.91411634	    -23.61546342	     -1.50817201	      6.32284724	    -16.19986853	     11.99868135	     18.17477575	    -66.70390261	     36.97272521	     53.10521733	      0.00000000	     34.32000000	     30.42326055	     -1.16071730	     -0.17905085	     -0.04899003	     -0.00731917	     -1.91840818	     -0.38454796	     -0.07883917	     -2.25694527	     -0.44068704	     -0.09183919	     -2.25694527	     -0.60629468	     -0.09183919	     -1.69270895	     -0.60629468	     -0.09183919	     -1.12847263	     -0.55015720	     -0.03941958	     -0.26276116	      0.02025140	     -0.01208420	     -8.37063452	      0.58015987	     -0.07685364
      1.93000000	      0.90515973	     -0.93421542	     -1.42183157	     -0.83716664	      1.09317324	      0.91387992	    -23.69820200	     -1.41950019	      6.15267498	    -16.12502572	     11.99828991	     18.22018475	    -66.64686867	     36.93137825	     53.10406839	      0.00000000	     34.32000000	     30.42326055	     -1.16071730	     -0.20155240	     -0.03847216	      0.00062789	     -2.15949694	     -0.30198778	      0.00676333	     -2.54057840	     -0.34607414	      0.00787856	     -2.54057840	     -0.47612679	      0.00787856	     -1.90543380	     -0.47612679	      0.00787856	     -1.27028920	     -0.43204170	      0.00338167	     -0.26138835	      0.02066023	     -0.00060823	     -8.32690177	      0.59187186	     -0.00386823
      1.94000000	      0.92831892	     -0.93258062	     -1.31668078	     -0.83691995	      1.09345624	      0.91375105	    -23.66784700	     -1.46377291	      6.22007223	    -16.16371072	     11.99884918	     18.20629134	    -66.56979192	     37.03426605	     49.93679585	      0.00000000	     34.32000000	     30.42326055	     -1.16071730	     -0.22234467	     -0.03387734	     -0.00032797	     -2.38227198	     -0.26592065	     -0.00353279	     -2.80266605	     -0.30474167	     -0.00411532	     -2.80266605	     -0.41926182	     -0.00411532	     -2.10199953	     -0.41926182	     -0.00411532	     -1.40133302	     -0.38044192	     -0.00176640	     -0.26026353	      0.00995253	     -0.00228334	     -8.29106889	      0.28511909	     -0.01452171
      1.95000000	      0.89727292	     -0.96341419	     -1.22900565	     -0.83679939	      1.09367041	      0.91401608	    -23.67487742	     -1.52906247	      6.23235858	    -16.22557028	     11.99799734	     18.22807653	    -66.58682693	     37.02745156	     49.81273179	      0.00000000	     34.32000000	     30.42326055	     -1.16071730	     -0.24220811	     -0.03456928	     -0.00124176	     -2.59509522	     -0.27135205	     -0.01337570	     -3.05304572	     -0.31096598	     -0.01558125	     -3.05304572	     -0.42782519	     -0.01558125	     -2.28978429	     -0.42782519	     -0.01558125	     -1.52652286	     -0.38821240	     -0.00668785	     -0.26084036	      0.01078937	      0.00051526	     -8.30944468	      0.30909274	      0.00327694
      1.96000000	      0.92016465	     -0.99211411	     -1.13828170	     -0.83664622	      1.09387951	      0.91390931	    -23.69349738	     -1.51446662	      6.19638426	    -16.21386354	     11.99829690	     18.23942728	    -66.52854442	     36.93661940	     53.12754307	      0.00000000	     34.32000000	     30.42326055	     -1.16071730	     -0.26060428	     -0.03606092	     -0.00133011	     -2.79219775	     -0.28306076	     -0.01432739	     -3.28493047	     -0.32438401	     -0.01668987	     -3.28493047	     -0.44628564	     -0.01668987	     -2.46369785	     -0.44628564	     -0.01668987	     -1.64246524	     -0.40496358	     -0.00716369	     -0.26165062	      0.00880440	      0.00022388	     -8.33525682	      0.25222753	      0.00142383
      1.97000000	      0.91861040	     -1.03961789	     -1.05071918	     -0.83649681	      1.09414426	      0.91400109	    -23.65687498	     -1.56229898	      6.27519302	    -16.25515151	     11.99858166	     18.22154643	    -66.44040847	     36.99734639	     47.34831156	      0.00000000	     34.32000000	     30.42326055	     -1.16071730	     -0.27981756	     -0.03925205	     -0.00174621	     -2.99805495	     -0.30810956	     -0.01880948	     -3.52711482	     -0.35308961	     -0.02191103	     -3.52711482	     -0.48577864	     -0.02191103	     -2.64533612	     -0.48577864	     -0.02191103	     -1.76355741	     -0.44079987	     -0.00940474	     -0.26203599	      0.01132976	      0.00221117	     -8.34753327	      0.32457369	      0.01406270
      1.98000000	      0.92312748	     -1.04055127	     -0.97779010	     -0.83640467	      1.09435430	      0.91399145	    -23.74706571	     -1.58101171	      6.13340185	    -16.28208186	     11.99846636	     18.29873254	    -66.50816443	     36.99251714	     46.92176569	      0.00000000	     34.32000000	     30.42326055	     -1.16071730	     -0.29785827	     -0.03895069	     -0.00219883	     -3.19134886	     -0.30574400	     -0.02368493	     -3.75451886	     -0.35037871	     -0.02759041	     -3.75451886	     -0.48204900	     -0.02759041	     -2.81588915	     -0.48204900	     -0.02759041	     -1.87725943	     -0.43741557	     -0.01184247	     -0.26231279	      0.00907113	      0.00158281	     -8.35635093	      0.25986863	      0.01006643
